<svg width="25" height="24" viewBox="0 0 25 24" fill="none" xmlns="http://www.w3.org/2000/svg">
<g clip-path="url(#clip0_221_1165)">
<path d="M10.3113 19V14H14.4358V19C14.4358 19.55 14.8998 20 15.467 20H18.5603C19.1275 20 19.5915 19.55 19.5915 19V12H21.3444C21.8187 12 22.0456 11.43 21.6847 11.13L13.0644 3.59997C12.6726 3.25997 12.0745 3.25997 11.6827 3.59997L3.06248 11.13C2.7119 11.43 2.92843 12 3.40275 12H5.15567V19C5.15567 19.55 5.61968 20 6.1868 20H9.28019C9.84731 20 10.3113 19.55 10.3113 19Z" fill="#A3AED0"/>
</g>
<defs>
<clipPath id="clip0_221_1165">
<rect width="24.7471" height="24" fill="white"/>
</clipPath>
</defs>
</svg>
